<svg xmlns="http://www.w3.org/2000/svg" version="1.1" xmlns:xlink="http://www.w3.org/1999/xlink" xmlns:svgjs="http://svgjs.dev/svgjs" width="2000" height="1252" viewBox="0 0 2000 1252"><g transform="matrix(1,0,0,1,-1.2121212121212466,-2.01935483870966)"><svg viewBox="0 0 396 248" data-background-color="#ffffff" preserveAspectRatio="xMidYMid meet" height="1252" width="2000" xmlns="http://www.w3.org/2000/svg" xmlns:xlink="http://www.w3.org/1999/xlink"><g id="tight-bounds" transform="matrix(1,0,0,1,0.2400000000000091,0.4000000000000057)"><svg viewBox="0 0 395.52 247.2" height="247.2" width="395.52"><g><svg></svg></g><g><svg viewBox="0 0 395.52 247.2" height="247.2" width="395.52"><g transform="matrix(1,0,0,1,130.65291214031112,47.215199999999996)"><svg viewBox="0 0 134.21417571937778 152.7696" height="152.7696" width="134.21417571937778"><g><svg viewBox="0 0 181.10611290445715 206.1444573769724" height="152.7696" width="134.21417571937778"><g><svg viewBox="0 0 181.10611290445715 206.1444573769724" height="206.1444573769724" width="181.10611290445715"><g id="textblocktransform"><svg viewBox="0 0 181.10611290445715 206.1444573769724" height="206.1444573769724" width="181.10611290445715" id="textblock"><g><svg viewBox="0 0 181.10611290445715 151.825483872" height="151.825483872" width="181.10611290445715"><g transform="matrix(1,0,0,1,0,0)"><svg width="181.10611290445715" viewBox="4.8 -28 33.400000000000006 28" height="151.825483872" data-palette-color="#000000"><path d="M12-4L15-4Q15.2-3.2 15.2-2L15.2-2Q15.2-0.85 15 0L15 0 5 0Q4.8-0.85 4.8-2L4.8-2Q4.8-3.2 5-4L5-4 8-4Q7.8-4.85 7.8-6L7.8-6Q7.8-7.2 8-8L8-8Q7.8-8.85 7.8-10L7.8-10Q7.8-11.2 8-12L8-12Q7.8-12.85 7.8-14L7.8-14Q7.8-15.2 8-16L8-16Q7.8-16.85 7.8-18L7.8-18Q7.8-19.2 8-20L8-20Q7.8-20.85 7.8-22L7.8-22Q7.8-23.2 8-24L8-24 5-24Q4.8-24.85 4.8-26L4.8-26Q4.8-27.2 5-28L5-28 15-28Q15.2-27.2 15.2-26L15.2-26Q15.2-24.85 15-24L15-24 12-24Q12.2-23.2 12.2-22L12.2-22Q12.2-20.85 12-20L12-20Q12.2-19.2 12.2-18L12.2-18Q12.2-16.85 12-16L12-16Q12.2-15.2 12.2-14L12.2-14Q12.2-12.85 12-12L12-12Q12.2-11.2 12.2-10L12.2-10Q12.2-8.85 12-8L12-8Q12.2-7.2 12.2-6L12.2-6Q12.2-4.85 12-4L12-4ZM38.2-6Q38.2-4.85 38-4L38-4Q38.2-3.2 38.2-2L38.2-2Q38.2-0.85 38 0L38 0 34 0Q33.8-0.85 33.8-2L33.8-2Q33.8-3.2 34-4L34-4Q33.8-4.85 33.8-6L33.8-6Q33.8-7.2 34-8L34-8 26-8Q26.2-7.2 26.2-6L26.2-6Q26.2-4.85 26-4L26-4Q26.2-3.2 26.2-2L26.2-2Q26.2-0.85 26 0L26 0 22 0Q21.8-0.85 21.8-2L21.8-2Q21.8-3.2 22-4L22-4Q21.8-4.85 21.8-6L21.8-6Q21.8-7.2 22-8L22-8 23.5-8Q23.3-8.85 23.3-10L23.3-10Q23.3-11.2 23.5-12L23.5-12Q23.3-12.85 23.3-14L23.3-14Q23.3-15.2 23.5-16L23.5-16 24.5-16Q24.3-16.85 24.3-18L24.3-18Q24.3-19.2 24.5-20L24.5-20 26-20Q25.8-20.85 25.8-22L25.8-22Q25.8-23.2 26-24L26-24 27-24Q26.8-24.85 26.8-26L26.8-26Q26.8-27.2 27-28L27-28 33-28Q33.2-27.2 33.2-26L33.2-26Q33.2-24.85 33-24L33-24 34-24Q34.2-23.2 34.2-22L34.2-22Q34.2-20.85 34-20L34-20 35.5-20Q35.7-19.2 35.7-18L35.7-18Q35.7-16.85 35.5-16L35.5-16 36.5-16Q36.7-15.2 36.7-14L36.7-14Q36.7-12.85 36.5-12L36.5-12Q36.7-11.2 36.7-10L36.7-10Q36.7-8.85 36.5-8L36.5-8 38-8Q38.2-7.2 38.2-6L38.2-6ZM32.5-12Q32.3-12.85 32.3-14L32.3-14Q32.3-15.2 32.5-16L32.5-16 31.5-16Q31.3-16.85 31.3-18L31.3-18Q31.3-19.2 31.5-20L31.5-20 28.5-20Q28.7-19.2 28.7-18L28.7-18Q28.7-16.85 28.5-16L28.5-16 27.5-16Q27.7-15.2 27.7-14L27.7-14Q27.7-12.85 27.5-12L27.5-12 32.5-12Z" opacity="1" transform="matrix(1,0,0,1,0,0)" fill="#ffffff" class="wordmark-text-0" data-fill-palette-color="primary" id="text-0"></path></svg></g></svg></g><g transform="matrix(1,0,0,1,0,187.66783680256628)"><svg viewBox="0 0 122.15607315405634 18.476620574406127" height="18.476620574406127" width="122.15607315405634"><g transform="matrix(1,0,0,1,0,0)"><svg width="122.15607315405634" viewBox="3 -39.65 267.07 40.4" height="18.476620574406127" data-palette-color="#000000"><path d="M3-34.55L9.35-34.55 9.35 0 3 0 3-34.55ZM22.55-27.15Q27.25-27.15 30.5-24.05L30.5-24.05 28.15-20.7Q26.75-21.7 25.5-22.2 24.25-22.7 22.95-22.7L22.95-22.7Q21.5-22.7 20.67-21.93 19.85-21.15 19.85-19.8L19.85-19.8Q19.85-18.45 20.77-17.63 21.7-16.8 24.5-15.7L24.5-15.7Q27.95-14.35 29.6-12.5 31.25-10.65 31.25-7.55L31.25-7.55Q31.25-3.7 28.55-1.48 25.85 0.75 21.7 0.75L21.7 0.75Q19 0.75 16.72-0.23 14.45-1.2 12.75-2.95L12.75-2.95 15.75-6.25Q18.55-3.8 21.45-3.8L21.45-3.8Q23.1-3.8 24.05-4.67 25-5.55 25-7.1L25-7.1Q25-8.25 24.6-8.97 24.2-9.7 23.2-10.33 22.2-10.95 20.2-11.7L20.2-11.7Q16.75-13.05 15.27-14.85 13.8-16.65 13.8-19.45L13.8-19.45Q13.8-22.8 16.17-24.98 18.55-27.15 22.55-27.15L22.55-27.15ZM58.75-27.15Q61.4-27.15 63-25.1 64.59-23.05 64.59-19.6L64.59-19.6 64.59 0 58.55 0 58.55-18.95Q58.55-20.85 58.05-21.68 57.55-22.5 56.6-22.5L56.6-22.5Q54.65-22.5 52.85-18.8L52.85-18.8 52.85 0 46.85 0 46.85-18.95Q46.85-22.5 44.95-22.5L44.95-22.5Q42.9-22.5 41.15-18.8L41.15-18.8 41.15 0 35.1 0 35.1-26.45 40.45-26.45 40.85-23.05Q43.45-27.15 47.1-27.15L47.1-27.15Q48.95-27.15 50.3-26 51.65-24.85 52.35-22.75L52.35-22.75Q55-27.15 58.75-27.15L58.75-27.15ZM86.99-6.4Q86.99-5.1 87.34-4.48 87.69-3.85 88.49-3.45L88.49-3.45 87.24 0.65Q85.19 0.4 83.97-0.45 82.74-1.3 82.14-3.05L82.14-3.05Q79.84 0.75 75.69 0.75L75.69 0.75Q72.39 0.75 70.44-1.48 68.49-3.7 68.49-7.4L68.49-7.4Q68.49-11.7 71.17-13.95 73.84-16.2 78.94-16.2L78.94-16.2 80.99-16.2 80.99-18.05Q80.99-20.55 80.12-21.58 79.24-22.6 77.29-22.6L77.29-22.6Q74.94-22.6 71.44-21.3L71.44-21.3 70.04-25.3Q72.04-26.2 74.19-26.68 76.34-27.15 78.29-27.15L78.29-27.15Q86.99-27.15 86.99-18.35L86.99-18.35 86.99-6.4ZM77.34-3.7Q79.74-3.7 80.99-7L80.99-7 80.99-12.55 79.54-12.55Q76.99-12.55 75.82-11.4 74.64-10.25 74.64-7.85L74.64-7.85Q74.64-5.8 75.34-4.75 76.04-3.7 77.34-3.7L77.34-3.7ZM92.79-26.45L98.94-26.45 98.94 0 92.79 0 92.79-26.45ZM95.84-39.65Q97.49-39.65 98.52-38.6 99.54-37.55 99.54-35.9L99.54-35.9Q99.54-34.3 98.52-33.25 97.49-32.2 95.84-32.2L95.84-32.2Q94.19-32.2 93.17-33.25 92.14-34.3 92.14-35.9L92.14-35.9Q92.14-37.55 93.17-38.6 94.19-39.65 95.84-39.65L95.84-39.65ZM110.24 0.75Q107.54 0.75 105.96-0.93 104.39-2.6 104.39-5.4L104.39-5.4 104.39-37.05 110.54-37.7 110.54-5.65Q110.54-5 110.84-4.6 111.14-4.2 111.74-4.2L111.74-4.2Q112.09-4.2 112.41-4.3 112.74-4.4 112.84-4.4L112.84-4.4 114.04-0.2Q112.34 0.75 110.24 0.75L110.24 0.75ZM149.03 0L142.58 0 140.88-8.1 131.98-8.1 130.33 0 123.98 0 132.68-34.55 140.38-34.55 149.03 0ZM136.43-29.7L132.98-12.9 139.93-12.9 136.43-29.7ZM159.13-27.15Q163.83-27.15 167.08-24.05L167.08-24.05 164.73-20.7Q163.33-21.7 162.08-22.2 160.83-22.7 159.53-22.7L159.53-22.7Q158.08-22.7 157.26-21.93 156.43-21.15 156.43-19.8L156.43-19.8Q156.43-18.45 157.36-17.63 158.28-16.8 161.08-15.7L161.08-15.7Q164.53-14.35 166.18-12.5 167.83-10.65 167.83-7.55L167.83-7.55Q167.83-3.7 165.13-1.48 162.43 0.75 158.28 0.75L158.28 0.75Q155.58 0.75 153.31-0.23 151.03-1.2 149.33-2.95L149.33-2.95 152.33-6.25Q155.13-3.8 158.03-3.8L158.03-3.8Q159.68-3.8 160.63-4.67 161.58-5.55 161.58-7.1L161.58-7.1Q161.58-8.25 161.18-8.97 160.78-9.7 159.78-10.33 158.78-10.95 156.78-11.7L156.78-11.7Q153.33-13.05 151.86-14.85 150.38-16.65 150.38-19.45L150.38-19.45Q150.38-22.8 152.76-24.98 155.13-27.15 159.13-27.15L159.13-27.15ZM182.83-5L184.98-1.2Q182.53 0.75 179.23 0.75L179.23 0.75Q175.78 0.75 173.98-1.23 172.18-3.2 172.18-6.6L172.18-6.6 172.18-22 169.08-22 169.08-26.45 172.18-26.45 172.18-32.3 178.33-33.05 178.33-26.45 183.33-26.45 182.73-22 178.33-22 178.33-6.6Q178.33-4.2 180.38-4.2L180.38-4.2Q181.03-4.2 181.53-4.38 182.03-4.55 182.83-5L182.83-5ZM204.43-6.4Q204.43-5.1 204.78-4.48 205.13-3.85 205.93-3.45L205.93-3.45 204.68 0.65Q202.63 0.4 201.4-0.45 200.18-1.3 199.58-3.05L199.58-3.05Q197.28 0.75 193.13 0.75L193.13 0.75Q189.83 0.75 187.88-1.48 185.93-3.7 185.93-7.4L185.93-7.4Q185.93-11.7 188.6-13.95 191.28-16.2 196.38-16.2L196.38-16.2 198.43-16.2 198.43-18.05Q198.43-20.55 197.55-21.58 196.68-22.6 194.73-22.6L194.73-22.6Q192.38-22.6 188.88-21.3L188.88-21.3 187.48-25.3Q189.48-26.2 191.63-26.68 193.78-27.15 195.73-27.15L195.73-27.15Q204.43-27.15 204.43-18.35L204.43-18.35 204.43-6.4ZM194.78-3.7Q197.18-3.7 198.43-7L198.43-7 198.43-12.55 196.98-12.55Q194.43-12.55 193.25-11.4 192.08-10.25 192.08-7.85L192.08-7.85Q192.08-5.8 192.78-4.75 193.48-3.7 194.78-3.7L194.78-3.7ZM222.57-27.15Q225.42-27.15 227.07-25.1 228.72-23.05 228.72-19.6L228.72-19.6 228.72 0 222.57 0 222.57-18.9Q222.57-20.8 222.05-21.63 221.52-22.45 220.52-22.45L220.52-22.45Q218.42-22.45 216.37-18.5L216.37-18.5 216.37 0 210.22 0 210.22-26.45 215.57-26.45 216.02-23Q217.37-25.1 218.9-26.13 220.42-27.15 222.57-27.15L222.57-27.15ZM245.42-5L247.57-1.2Q245.12 0.75 241.82 0.75L241.82 0.75Q238.37 0.75 236.57-1.23 234.77-3.2 234.77-6.6L234.77-6.6 234.77-22 231.67-22 231.67-26.45 234.77-26.45 234.77-32.3 240.92-33.05 240.92-26.45 245.92-26.45 245.32-22 240.92-22 240.92-6.6Q240.92-4.2 242.97-4.2L242.97-4.2Q243.62-4.2 244.12-4.38 244.62-4.55 245.42-5L245.42-5ZM259.52-27.15Q264.52-27.15 267.29-23.65 270.07-20.15 270.07-13.25L270.07-13.25Q270.07-6.65 267.27-2.95 264.47 0.75 259.52 0.75L259.52 0.75Q254.57 0.75 251.77-2.88 248.97-6.5 248.97-13.25L248.97-13.25Q248.97-19.95 251.77-23.55 254.57-27.15 259.52-27.15L259.52-27.15ZM259.52-22.5Q257.37-22.5 256.37-20.38 255.37-18.25 255.37-13.25L255.37-13.25Q255.37-8.2 256.37-6.08 257.37-3.95 259.52-3.95L259.52-3.95Q261.67-3.95 262.67-6.08 263.67-8.2 263.67-13.25L263.67-13.25Q263.67-18.3 262.67-20.4 261.67-22.5 259.52-22.5L259.52-22.5Z" opacity="1" transform="matrix(1,0,0,1,0,0)" fill="#ffffff" class="slogan-text-1" data-fill-palette-color="secondary" id="text-1"></path></svg></g></svg></g></svg></g></svg></g></svg></g></svg></g><path d="M309.324 41.215L309.324 0 62.124 0 62.124 247.2 309.324 247.2 309.324 205.985 299.177 205.985 299.177 237.053 72.271 237.053 72.271 10.147 299.177 10.147 299.177 41.215Z" fill="#ffffff" stroke="transparent" data-fill-palette-color="tertiary"></path></svg></g><defs></defs></svg><rect width="395.52" height="247.2" fill="none" stroke="none" visibility="hidden"></rect></g></svg></g></svg>